<?xml version="1.0" encoding="UTF-8" standalone="no"?>
<!-- Created with Inkscape (http://www.inkscape.org/) -->

<svg
   xmlns:dc="http://purl.org/dc/elements/1.1/"
   xmlns:cc="http://creativecommons.org/ns#"
   xmlns:rdf="http://www.w3.org/1999/02/22-rdf-syntax-ns#"
   xmlns:svg="http://www.w3.org/2000/svg"
   xmlns="http://www.w3.org/2000/svg"
   xmlns:sodipodi="http://sodipodi.sourceforge.net/DTD/sodipodi-0.dtd"
   xmlns:inkscape="http://www.inkscape.org/namespaces/inkscape"
   width="420mm"
   height="297mm"
   viewBox="0 0 420 297"
   version="1.1"
   id="svg8"
   inkscape:version="0.92.4 (f8dce91, 2019-08-02)"
   sodipodi:docname="laserbox4mm.svg">
  <defs
     id="defs2" />
  <sodipodi:namedview
     id="base"
     pagecolor="#ffffff"
     bordercolor="#666666"
     borderopacity="1.0"
     inkscape:pageopacity="0.0"
     inkscape:pageshadow="2"
     inkscape:zoom="0.98994949"
     inkscape:cx="785.05641"
     inkscape:cy="546.10523"
     inkscape:document-units="mm"
     inkscape:current-layer="layer1"
     showgrid="true"
     showguides="true"
     inkscape:window-width="3066"
     inkscape:window-height="1689"
     inkscape:window-x="134"
     inkscape:window-y="55"
     inkscape:window-maximized="1">
    <inkscape:grid
       type="xygrid"
       id="grid815"
       units="mm"
       spacingx="1"
       spacingy="1" />
  </sodipodi:namedview>
  <metadata
     id="metadata5">
    <rdf:RDF>
      <cc:Work
         rdf:about="">
        <dc:format>image/svg+xml</dc:format>
        <dc:type
           rdf:resource="http://purl.org/dc/dcmitype/StillImage" />
        <dc:title></dc:title>
      </cc:Work>
    </rdf:RDF>
  </metadata>
  <g
     inkscape:label="Layer 1"
     inkscape:groupmode="layer"
     id="layer1">
    <path
       style="fill:none;stroke:#ff0000;stroke-width:0.1;stroke-linecap:butt;stroke-linejoin:miter;stroke-miterlimit:4;stroke-dasharray:none;stroke-opacity:1"
       d="m 368.94166,285.94166 v -96.05833 h -10 v -3.94167 h -9.99998 v 3.94167 h -10.00001 v -3.94167 h -10 v 3.94167 h -10 v -3.94167 h -10 v 96.05833 h 10 v 3.94167 h 10 v -3.94167 h 10 v 3.94167 h 10.00001 v -3.94167 h 9.99998 v 3.94167 z"
       id="path817"
       inkscape:connector-curvature="0"
       sodipodi:nodetypes="ccccccccccccccccccccccccc" />
    <path
       style="fill:none;stroke:#ff0000;stroke-width:0.1;stroke-linecap:butt;stroke-linejoin:miter;stroke-miterlimit:4;stroke-dasharray:none;stroke-opacity:1"
       d="m 303.94166,285.94166 v -96.05833 h -10 v -3.94167 h -9.99998 v 3.94167 h -10.00001 v -3.94167 h -10 v 3.94167 h -10 v -3.94167 h -10 v 96.05833 h 10 v 3.94167 h 10 v -3.94167 h 10 v 3.94167 h 10.00001 v -3.94167 h 9.99998 v 3.94167 z"
       id="path817-3"
       inkscape:connector-curvature="0"
       sodipodi:nodetypes="ccccccccccccccccccccccccc" />
    <path
       style="fill:none;stroke:#ff0000;stroke-width:0.1;stroke-linecap:butt;stroke-linejoin:miter;stroke-miterlimit:4;stroke-dasharray:none;stroke-opacity:1"
       d="m 238.94166,285.94166 v -96.05833 h -10 v -3.94167 h -9.99998 v 3.94167 h -10.00001 v -3.94167 h -10 v 3.94167 h -10 v -3.94167 h -10 v 96.05833 h 10 v 3.94167 h 10 v -3.94167 h 10 v 3.94167 h 10.00001 v -3.94167 h 9.99998 v 3.94167 z"
       id="path817-6"
       inkscape:connector-curvature="0"
       sodipodi:nodetypes="ccccccccccccccccccccccccc" />
    <path
       style="fill:none;stroke:#ff0000;stroke-width:0.1;stroke-linecap:butt;stroke-linejoin:miter;stroke-miterlimit:4;stroke-dasharray:none;stroke-opacity:1"
       d="m 173.94166,285.94166 2e-5,-30 h -7 c -4,0 -4,-5 0,-5 h 7 l -2e-5,-61.05833 h -10 v -3.94167 h -9.99998 v 3.94167 h -10.00001 v -3.94167 h -10 v 3.94167 h -10 v -3.94167 h -10 v 96.05833 h 10 v 3.94167 h 10 v -3.94167 h 10 v 3.94167 h 10.00001 v -3.94167 h 9.99998 v 3.94167 z"
       id="path817-7"
       inkscape:connector-curvature="0"
       sodipodi:nodetypes="ccccccccccccccccccccccccccccc" />
    <path
       style="fill:none;stroke:#ff0000;stroke-width:0.1;stroke-linecap:butt;stroke-linejoin:miter;stroke-miterlimit:4;stroke-dasharray:none;stroke-opacity:1"
       d="m 108.94168,285.94166 v -100 H 8.941678 v 100 H 108.94168"
       id="path846"
       inkscape:connector-curvature="0" />
    <path
       style="fill:none;stroke:#ff0000;stroke-width:0.1;stroke-linecap:butt;stroke-linejoin:miter;stroke-miterlimit:4;stroke-dasharray:none;stroke-opacity:1"
       d="M 368.94167,10.941652 V 40.941664 H 18.941679 l 1e-6,-8 h 10 v -14 h -10 l -1e-6,-8.000012 z"
       id="path848"
       inkscape:connector-curvature="0"
       sodipodi:nodetypes="ccccccccc" />
    <path
       style="fill:none;stroke:#ff0000;stroke-width:0.1;stroke-linecap:butt;stroke-linejoin:miter;stroke-miterlimit:4;stroke-dasharray:none;stroke-opacity:1"
       d="m 368.94168,45.941664 v 30.00001 H 18.941687 v -30.00001 z"
       id="path848-5"
       inkscape:connector-curvature="0" />
    <path
       style="fill:none;stroke:#ff0000;stroke-width:0.1;stroke-linecap:butt;stroke-linejoin:miter;stroke-miterlimit:4;stroke-dasharray:none;stroke-opacity:1"
       d="M 213.94167,180.94166 V 80.941664 h -100 v 99.999996 h 100"
       id="path846-3"
       inkscape:connector-curvature="0" />
    <path
       style="fill:none;stroke:#ff0000;stroke-width:0.09309498;stroke-linecap:butt;stroke-linejoin:miter;stroke-miterlimit:4;stroke-dasharray:none;stroke-opacity:1"
       d="m 303.94168,67.941664 v -14 h -13 v 14 z"
       id="path882"
       inkscape:connector-curvature="0" />
    <path
       style="fill:none;stroke:#ff0000;stroke-width:0.08999999;stroke-linecap:butt;stroke-linejoin:miter;stroke-miterlimit:4;stroke-dasharray:none;stroke-opacity:1"
       d="M 310,84.883334 H 217.88334 V 176.99999 L 310,176.97079 Z"
       id="path846-3-5"
       inkscape:connector-curvature="0"
       sodipodi:nodetypes="ccccc" />
    <path
       style="fill:none;stroke:#ff0000;stroke-width:0.1;stroke-miterlimit:4;stroke-dasharray:none;stroke-opacity:1"
       d="m 33.94168,245.94166 a 15,15 0 0 1 15,15 15,15 0 0 1 -15,15 15,15 0 0 1 -15,-15 15,15 0 0 1 15,-15 z"
       id="path899"
       inkscape:connector-curvature="0" />
    <path
       style="fill:none;stroke:#ff0000;stroke-width:0.1;stroke-miterlimit:4;stroke-dasharray:none;stroke-opacity:1"
       d="m 83.94168,245.94166 a 15,15 0 0 1 15,15 15,15 0 0 1 -15,15 15,15 0 0 1 -15,-15 15,15 0 0 1 15,-15 z"
       id="path899-6"
       inkscape:connector-curvature="0" />
    <path
       style="fill:none;stroke:#ff0000;stroke-width:0.08944272;stroke-linecap:butt;stroke-linejoin:miter;stroke-miterlimit:4;stroke-dasharray:none;stroke-opacity:1"
       d="m 86.94167,195.94166 v 30 h 12 v -30 z"
       id="path917"
       inkscape:connector-curvature="0" />
    <path
       style="fill:none;stroke:#0000ff;stroke-width:1;stroke-linecap:butt;stroke-linejoin:miter;stroke-miterlimit:4;stroke-dasharray:none;stroke-opacity:1"
       d="M 290.94165,32.941664 H 170.94167"
       id="path1519"
       inkscape:connector-curvature="0" />
    <path
       style="fill:none;stroke:#0000ff;stroke-width:1;stroke-linecap:butt;stroke-linejoin:miter;stroke-miterlimit:4;stroke-dasharray:none;stroke-opacity:1"
       d="M 290.94167,18.941664 H 170.94169"
       id="path1519-2"
       inkscape:connector-curvature="0" />
    <path
       style="fill:none;stroke:#ff0000;stroke-width:0.08999999;stroke-linecap:butt;stroke-linejoin:miter;stroke-miterlimit:4;stroke-dasharray:none;stroke-opacity:1"
       d="M 105,84.883334 H 12.883337 V 176.99999 H 105 Z"
       id="path846-1"
       inkscape:connector-curvature="0"
       sodipodi:nodetypes="ccccc" />
    <path
       style="fill:none;stroke:#ff0000;stroke-width:0.1;stroke-miterlimit:4;stroke-dasharray:none;stroke-opacity:1"
       d="m 33.94167,140.94166 a 15,15 0 0 1 15.000001,15 15,15 0 0 1 -15.000001,15 15,15 0 0 1 -15.000002,-15 15,15 0 0 1 15.000002,-15 z"
       id="path899-2"
       inkscape:connector-curvature="0" />
    <path
       style="fill:none;stroke:#ff0000;stroke-width:0.1;stroke-miterlimit:4;stroke-dasharray:none;stroke-opacity:1"
       d="m 83.94167,140.94166 a 15,15 0 0 1 15,15 15,15 0 0 1 -15,15 15,15 0 0 1 -14.999999,-15 15,15 0 0 1 14.999999,-15 z"
       id="path899-6-7"
       inkscape:connector-curvature="0" />
    <path
       style="fill:none;stroke:#ff0000;stroke-width:0.09330357;stroke-linecap:butt;stroke-linejoin:miter;stroke-miterlimit:4;stroke-dasharray:none;stroke-opacity:1"
       d="M 81.94167,90.941664 V 120.94166 H 95.000003 V 90.941664 Z"
       id="path917-0"
       inkscape:connector-curvature="0" />
    <path
       style="fill:none;stroke:#00ff0e;stroke-width:0.1;stroke-linecap:butt;stroke-linejoin:miter;stroke-miterlimit:4;stroke-dasharray:none;stroke-opacity:1"
       d="M 12.883337,281.99999 V 189.88333 H 105 v 92.11666 H 12.883337"
       id="path1575"
       inkscape:connector-curvature="0"
       sodipodi:nodetypes="ccccc" />
    <path
       style="fill:none;stroke:#00ff0e;stroke-width:0.1;stroke-linecap:butt;stroke-linejoin:miter;stroke-miterlimit:4;stroke-dasharray:none;stroke-opacity:1"
       d="M 117.88334,84.883334 H 210 v 92.116656 l -92.05833,-0.0583 z"
       id="path1575-9"
       inkscape:connector-curvature="0"
       sodipodi:nodetypes="ccccc" />
  </g>
</svg>
